HIERARCHY
ROOT mixamorig:Hips
{
	OFFSET -0.000008 104.274872 1.554316
	CHANNELS 6 Xposition Yposition Zposition Xrotation Yrotation Zrotation
	JOINT mixamorig:Spine
	{
		OFFSET -0.000005 10.181595 0.131519
		CHANNELS 6 Xposition Yposition Zposition Xrotation Yrotation Zrotation
		JOINT mixamorig:Spine1
		{
			OFFSET -0.000000 9.893959 -1.470707
			CHANNELS 6 Xposition Yposition Zposition Xrotation Yrotation Zrotation
			JOINT mixamorig:Spine2
			{
				OFFSET -0.000000 9.220757 -1.370641
				CHANNELS 6 Xposition Yposition Zposition Xrotation Yrotation Zrotation
				JOINT mixamorig:Neck
				{
					OFFSET 0.000001 16.740417 -2.049036
					CHANNELS 6 Xposition Yposition Zposition Xrotation Yrotation Zrotation
					JOINT mixamorig:Head
					{
						OFFSET 0.000000 9.617874 1.685006
						CHANNELS 6 Xposition Yposition Zposition Xrotation Yrotation Zrotation
						JOINT mixamorig:HeadTop_End
						{
							OFFSET 0.000002 22.037354 7.501101
							CHANNELS 6 Xposition Yposition Zposition Xrotation Yrotation Zrotation
							End Site
							{
								OFFSET 0.000168 2310.654297 -282.823242
							}
						}
					}
				}
				JOINT mixamorig:RightShoulder
				{
					OFFSET -4.569970 11.014908 -2.160885
					CHANNELS 6 Xposition Yposition Zposition Xrotation Yrotation Zrotation
					JOINT mixamorig:RightArm
					{
						OFFSET -10.592851 -0.524811 -2.232101
						CHANNELS 6 Xposition Yposition Zposition Xrotation Yrotation Zrotation
						JOINT mixamorig:RightForeArm
						{
							OFFSET -27.841511 0.000031 -0.000004
							CHANNELS 6 Xposition Yposition Zposition Xrotation Yrotation Zrotation
							JOINT mixamorig:RightHand
							{
								OFFSET -28.328831 -0.000015 0.000015
								CHANNELS 6 Xposition Yposition Zposition Xrotation Yrotation Zrotation
								JOINT mixamorig:RightHandThumb1
								{
									OFFSET -2.464806 -1.573990 2.681852
									CHANNELS 6 Xposition Yposition Zposition Xrotation Yrotation Zrotation
									JOINT mixamorig:RightHandThumb2
									{
										OFFSET -3.215179 -1.872803 1.924282
										CHANNELS 6 Xposition Yposition Zposition Xrotation Yrotation Zrotation
										JOINT mixamorig:RightHandThumb3
										{
											OFFSET -2.654831 -1.527969 1.512609
											CHANNELS 6 Xposition Yposition Zposition Xrotation Yrotation Zrotation
											JOINT mixamorig:RightHandThumb4
											{
												OFFSET -2.018814 -1.152008 1.108052
												CHANNELS 6 Xposition Yposition Zposition Xrotation Yrotation Zrotation
												End Site
												{
													OFFSET -188.809540 -114.533607 132.431396
												}
											}
										}
									}
								}
								JOINT mixamorig:RightHandIndex1
								{
									OFFSET -9.108284 -0.517868 2.259835
									CHANNELS 6 Xposition Yposition Zposition Xrotation Yrotation Zrotation
									JOINT mixamorig:RightHandIndex2
									{
										OFFSET -3.699989 0.000000 0.001215
										CHANNELS 6 Xposition Yposition Zposition Xrotation Yrotation Zrotation
										JOINT mixamorig:RightHandIndex3
										{
											OFFSET -2.850006 0.000031 -0.000522
											CHANNELS 6 Xposition Yposition Zposition Xrotation Yrotation Zrotation
											JOINT mixamorig:RightHandIndex4
											{
												OFFSET -2.772186 -0.000015 -0.000020
												CHANNELS 6 Xposition Yposition Zposition Xrotation Yrotation Zrotation
												End Site
												{
													OFFSET -277.218445 0.000000 -0.050231
												}
											}
										}
									}
								}
								JOINT mixamorig:RightHandMiddle1
								{
									OFFSET -9.532516 -0.000031 -0.000023
									CHANNELS 6 Xposition Yposition Zposition Xrotation Yrotation Zrotation
									JOINT mixamorig:RightHandMiddle2
									{
										OFFSET -3.700005 -0.000015 0.003713
										CHANNELS 6 Xposition Yposition Zposition Xrotation Yrotation Zrotation
										JOINT mixamorig:RightHandMiddle3
										{
											OFFSET -2.949974 0.000015 -0.002054
											CHANNELS 6 Xposition Yposition Zposition Xrotation Yrotation Zrotation
											JOINT mixamorig:RightHandMiddle4
											{
												OFFSET -2.946640 0.000000 -0.000156
												CHANNELS 6 Xposition Yposition Zposition Xrotation Yrotation Zrotation
												End Site
												{
													OFFSET -294.664337 0.000000 -0.113670
												}
											}
										}
									}
								}
								JOINT mixamorig:RightHandRing1
								{
									OFFSET -9.103600 -0.043076 -1.865134
									CHANNELS 6 Xposition Yposition Zposition Xrotation Yrotation Zrotation
									JOINT mixamorig:RightHandRing2
									{
										OFFSET -3.379288 0.000000 -0.001055
										CHANNELS 6 Xposition Yposition Zposition Xrotation Yrotation Zrotation
										JOINT mixamorig:RightHandRing3
										{
											OFFSET -2.889687 -0.000015 0.000379
											CHANNELS 6 Xposition Yposition Zposition Xrotation Yrotation Zrotation
											JOINT mixamorig:RightHandRing4
											{
												OFFSET -2.638809 -0.000015 0.000941
												CHANNELS 6 Xposition Yposition Zposition Xrotation Yrotation Zrotation
												End Site
												{
													OFFSET -263.880371 0.000000 0.516020
												}
											}
										}
									}
								}
								JOINT mixamorig:RightHandPinky1
								{
									OFFSET -8.076683 -0.486710 -3.806280
									CHANNELS 6 Xposition Yposition Zposition Xrotation Yrotation Zrotation
									JOINT mixamorig:RightHandPinky2
									{
										OFFSET -3.600014 -0.000015 -0.003747
										CHANNELS 6 Xposition Yposition Zposition Xrotation Yrotation Zrotation
										JOINT mixamorig:RightHandPinky3
										{
											OFFSET -2.099983 0.000000 -0.005739
											CHANNELS 6 Xposition Yposition Zposition Xrotation Yrotation Zrotation
											JOINT mixamorig:RightHandPinky4
											{
												OFFSET -2.115768 -0.000031 -0.003680
												CHANNELS 6 Xposition Yposition Zposition Xrotation Yrotation Zrotation
												End Site
												{
													OFFSET -211.577087 0.000000 -0.350686
												}
											}
										}
									}
								}
							}
						}
					}
				}
				JOINT mixamorig:LeftShoulder
				{
					OFFSET 4.570447 11.014725 -2.160855
					CHANNELS 6 Xposition Yposition Zposition Xrotation Yrotation Zrotation
					JOINT mixamorig:LeftArm
					{
						OFFSET 10.592371 -0.524597 -2.232119
						CHANNELS 6 Xposition Yposition Zposition Xrotation Yrotation Zrotation
						JOINT mixamorig:LeftForeArm
						{
							OFFSET 27.841532 -0.000031 0.000026
							CHANNELS 6 Xposition Yposition Zposition Xrotation Yrotation Zrotation
							JOINT mixamorig:LeftHand
							{
								OFFSET 28.328846 -0.000061 0.000022
								CHANNELS 6 Xposition Yposition Zposition Xrotation Yrotation Zrotation
								JOINT mixamorig:LeftHandThumb1
								{
									OFFSET 2.466141 -1.576172 2.681732
									CHANNELS 6 Xposition Yposition Zposition Xrotation Yrotation Zrotation
									JOINT mixamorig:LeftHandThumb2
									{
										OFFSET 3.217812 -1.872070 1.916482
										CHANNELS 6 Xposition Yposition Zposition Xrotation Yrotation Zrotation
										JOINT mixamorig:LeftHandThumb3
										{
											OFFSET 2.656029 -1.528778 1.514513
											CHANNELS 6 Xposition Yposition Zposition Xrotation Yrotation Zrotation
											JOINT mixamorig:LeftHandThumb4
											{
												OFFSET 2.020889 -1.154053 1.115139
												CHANNELS 6 Xposition Yposition Zposition Xrotation Yrotation Zrotation
												End Site
												{
													OFFSET 190.885437 -115.081749 130.048782
												}
											}
										}
									}
								}
								JOINT mixamorig:LeftHandIndex1
								{
									OFFSET 9.109314 -0.518021 2.259871
									CHANNELS 6 Xposition Yposition Zposition Xrotation Yrotation Zrotation
									JOINT mixamorig:LeftHandIndex2
									{
										OFFSET 3.699989 0.000000 -0.000322
										CHANNELS 6 Xposition Yposition Zposition Xrotation Yrotation Zrotation
										JOINT mixamorig:LeftHandIndex3
										{
											OFFSET 2.850006 0.000000 0.000352
											CHANNELS 6 Xposition Yposition Zposition Xrotation Yrotation Zrotation
											JOINT mixamorig:LeftHandIndex4
											{
												OFFSET 2.774864 -0.000031 -0.000027
												CHANNELS 6 Xposition Yposition Zposition Xrotation Yrotation Zrotation
												End Site
												{
													OFFSET 277.486267 0.000000 -0.009857
												}
											}
										}
									}
								}
								JOINT mixamorig:LeftHandMiddle1
								{
									OFFSET 9.533394 0.000061 0.000044
									CHANNELS 6 Xposition Yposition Zposition Xrotation Yrotation Zrotation
									JOINT mixamorig:LeftHandMiddle2
									{
										OFFSET 3.699989 -0.000015 -0.000231
										CHANNELS 6 Xposition Yposition Zposition Xrotation Yrotation Zrotation
										JOINT mixamorig:LeftHandMiddle3
										{
											OFFSET 2.949997 -0.000015 -0.000059
											CHANNELS 6 Xposition Yposition Zposition Xrotation Yrotation Zrotation
											JOINT mixamorig:LeftHandMiddle4
											{
												OFFSET 2.952896 0.000031 0.000063
												CHANNELS 6 Xposition Yposition Zposition Xrotation Yrotation Zrotation
												End Site
												{
													OFFSET 295.289337 0.000000 0.022810
												}
											}
										}
									}
								}
								JOINT mixamorig:LeftHandRing1
								{
									OFFSET 9.104523 -0.042999 -1.865074
									CHANNELS 6 Xposition Yposition Zposition Xrotation Yrotation Zrotation
									JOINT mixamorig:LeftHandRing2
									{
										OFFSET 3.150009 -0.000031 0.000043
										CHANNELS 6 Xposition Yposition Zposition Xrotation Yrotation Zrotation
										JOINT mixamorig:LeftHandRing3
										{
											OFFSET 2.949982 -0.000015 0.000040
											CHANNELS 6 Xposition Yposition Zposition Xrotation Yrotation Zrotation
											JOINT mixamorig:LeftHandRing4
											{
												OFFSET 2.644348 0.000000 0.000057
												CHANNELS 6 Xposition Yposition Zposition Xrotation Yrotation Zrotation
												End Site
												{
													OFFSET 264.434631 0.000000 0.012105
												}
											}
										}
									}
								}
								JOINT mixamorig:LeftHandPinky1
								{
									OFFSET 8.077789 -0.486847 -3.806259
									CHANNELS 6 Xposition Yposition Zposition Xrotation Yrotation Zrotation
									JOINT mixamorig:LeftHandPinky2
									{
										OFFSET 3.599953 0.000031 0.014727
										CHANNELS 6 Xposition Yposition Zposition Xrotation Yrotation Zrotation
										JOINT mixamorig:LeftHandPinky3
										{
											OFFSET 2.100021 0.000015 0.007705
											CHANNELS 6 Xposition Yposition Zposition Xrotation Yrotation Zrotation
											JOINT mixamorig:LeftHandPinky4
											{
												OFFSET 2.125504 0.000031 0.007517
												CHANNELS 6 Xposition Yposition Zposition Xrotation Yrotation Zrotation
												End Site
												{
													OFFSET 212.550781 0.000000 0.625752
												}
											}
										}
									}
								}
							}
						}
					}
				}
			}
		}
	}
	JOINT mixamorig:RightUpLeg
	{
		OFFSET -8.207787 -6.751648 -1.599560
		CHANNELS 6 Xposition Yposition Zposition Xrotation Yrotation Zrotation
		JOINT mixamorig:RightLeg
		{
			OFFSET -0.000002 -44.370117 0.345942
			CHANNELS 6 Xposition Yposition Zposition Xrotation Yrotation Zrotation
			JOINT mixamorig:RightFoot
			{
				OFFSET 0.000003 -44.423679 -3.043532
				CHANNELS 6 Xposition Yposition Zposition Xrotation Yrotation Zrotation
				JOINT mixamorig:RightToeBase
				{
					OFFSET -0.000002 -8.728671 10.710558
					CHANNELS 6 Xposition Yposition Zposition Xrotation Yrotation Zrotation
					JOINT mixamorig:RightToe_End
					{
						OFFSET -0.000001 -0.000679 9.278119
						CHANNELS 6 Xposition Yposition Zposition Xrotation Yrotation Zrotation
						End Site
						{
							OFFSET 0.000000 -0.067690 927.812134
						}
					}
				}
			}
		}
	}
	JOINT mixamorig:LeftUpLeg
	{
		OFFSET 8.207793 -6.751686 -1.599556
		CHANNELS 6 Xposition Yposition Zposition Xrotation Yrotation Zrotation
		JOINT mixamorig:LeftLeg
		{
			OFFSET -0.000004 -44.370014 0.346954
			CHANNELS 6 Xposition Yposition Zposition Xrotation Yrotation Zrotation
			JOINT mixamorig:LeftFoot
			{
				OFFSET -0.000001 -44.423672 -3.044401
				CHANNELS 6 Xposition Yposition Zposition Xrotation Yrotation Zrotation
				JOINT mixamorig:LeftToeBase
				{
					OFFSET -0.000002 -8.728669 10.710558
					CHANNELS 6 Xposition Yposition Zposition Xrotation Yrotation Zrotation
					JOINT mixamorig:LeftToe_End
					{
						OFFSET -0.000003 -0.000679 9.278133
						CHANNELS 6 Xposition Yposition Zposition Xrotation Yrotation Zrotation
						End Site
						{
							OFFSET 0.000000 -0.068021 927.813477
						}
					}
				}
			}
		}
	}
}
MOTION
Frames: 3
Frame Time: 0.033333
0.000006 104.270477 1.554256 0.000010 0.000003 -0.000113 -0.000005 10.181587 0.131522 0.000001 -0.000003 0.000084 -0.000000 9.893967 -1.470711 0.000001 0.000000 -0.000000 -0.000000 9.220802 -1.370642 0.000000 -0.000000 -0.000000 0.000001 16.740433 -2.049030 0.000000 -0.000000 -0.000000 0.000000 9.617859 1.685014 0.000000 0.000000 0.000000 0.000002 22.037384 7.501101 0.000000 -0.000000 0.000000 -4.569968 11.014880 -2.160881 0.000008 0.000001 -0.000038 -10.592871 -0.524780 -2.231881 77.702452 33.152198 -26.965732 -27.841515 -0.000007 0.000549 -50.346468 109.034408 66.795739 -28.328823 0.000009 0.000021 -0.000321 -0.000041 0.000005 -2.464461 -1.573705 2.682295 -53.120826 -177.629916 -27.612078 -3.215288 -1.872608 1.924662 155.577421 30.356793 -4.262378 -2.654937 -1.527893 1.513086 146.970426 26.619754 -40.353984 -2.018827 -1.151998 1.108060 -0.000002 -0.000002 0.000005 -9.108393 -0.517566 2.260117 96.634800 17.902175 -20.115858 -3.700093 0.000313 0.001507 93.002622 15.605377 -16.408804 -2.850093 0.000368 -0.000272 92.815775 12.674260 -13.306371 -2.772183 0.000001 -0.000022 -0.000000 -0.000000 -0.000001 -9.532601 0.000264 0.000206 89.297688 17.479672 -17.412558 -3.700081 0.000317 0.003951 87.233243 13.943264 -13.199553 -2.950065 0.000334 -0.001852 89.152076 12.314916 -12.128297 -2.946629 0.000015 -0.000153 0.000000 -0.000001 -0.000001 -9.103708 -0.042768 -1.864880 88.281220 19.852954 -19.232874 -3.379342 0.000304 -0.000840 86.753921 10.956869 -10.373101 -2.889751 0.000353 0.000613 90.729364 6.819795 -6.952999 -2.638810 -0.000028 0.000940 0.000001 0.000003 -0.000003 -8.076761 -0.486396 -3.806039 80.606826 18.495693 -15.594888 -3.600056 0.000273 -0.003558 80.777075 7.939144 -6.456014 -2.100013 0.000317 -0.005533 82.033652 4.420714 -3.657936 -2.115774 -0.000055 -0.003675 -0.000002 -0.000001 -0.000004 4.570446 11.014691 -2.160851 -0.000018 0.000010 -0.000021 10.592389 -0.524479 -2.232359 74.959011 -8.722768 6.693688 27.841831 0.000067 -0.000184 95.249099 -69.822743 74.829312 28.328833 -0.000028 0.000015 0.000020 -0.000089 -0.000000 2.465994 -1.576141 2.681899 -40.531220 163.178970 -8.158807 3.217812 -1.871758 1.916365 158.549277 -28.618583 14.172218 2.656098 -1.528646 1.514468 135.922131 -28.888736 48.162396 2.020887 -1.154059 1.115148 0.000003 0.000004 0.000004 9.109385 -0.517872 2.259736 78.987729 -14.758825 12.174991 3.700052 0.000146 -0.000459 76.873786 -14.104075 11.228199 2.850045 0.000171 0.000200 74.802026 -11.934477 9.137646 2.774881 -0.000017 -0.000029 0.000000 -0.000001 0.000003 9.533465 0.000201 -0.000093 79.925118 -13.555749 11.368025 3.700062 0.000161 -0.000384 81.805838 -12.927504 11.208805 2.950070 0.000140 -0.000185 78.472248 -17.388606 14.238926 2.952868 -0.000027 0.000069 -0.000001 0.000001 -0.000001 9.104584 -0.042865 -1.865240 77.786286 -11.677393 9.433066 3.150062 0.000183 -0.000105 83.915322 -12.286744 11.056357 2.950017 0.000139 -0.000074 82.951732 -15.211986 13.465883 2.644331 0.000029 0.000058 -0.000001 -0.000001 0.000001 8.077837 -0.486741 -3.806420 69.407262 -12.697194 9.209322 3.600007 0.000163 0.014562 69.739879 -11.819506 8.605756 2.100028 0.000157 0.007555 72.308098 -12.657242 9.625264 2.125501 -0.000000 0.007510 -0.000000 -0.000001 -0.000002 -8.207786 -6.751667 -1.599560 -0.077001 -0.000003 0.000080 -0.000002 -44.370110 0.345938 0.153719 -0.000000 -0.000000 0.000000 -44.423679 -3.043532 -0.076700 0.000000 -0.000002 -0.000006 -8.728667 10.710559 -0.000009 -0.000000 -0.000000 -0.000001 -0.000679 9.278123 0.000000 -0.000000 -0.000000 8.207792 -6.751710 -1.599556 -0.074518 -0.000003 0.000081 -0.000002 -44.370014 0.346960 0.148822 0.000002 0.000000 -0.000001 -44.423664 -3.044403 -0.074314 0.000000 -0.000002 -0.000004 -8.728671 10.710558 0.000007 -0.000000 -0.000000 0.000000 -0.000680 9.278137 -0.000000 0.000000 -0.000001 
0.000006 104.270477 1.554256 0.000010 0.000003 -0.000113 -0.000005 10.181587 0.131522 0.000001 -0.000003 0.000084 -0.000000 9.893967 -1.470711 0.000001 0.000000 -0.000000 -0.000000 9.220802 -1.370642 0.000000 -0.000000 -0.000000 0.000001 16.740433 -2.049030 0.000000 -0.000000 -0.000000 0.000000 9.617859 1.685014 0.000000 0.000000 0.000000 0.000002 22.037384 7.501101 0.000000 -0.000000 0.000000 -4.569968 11.014880 -2.160881 0.000008 0.000001 -0.000038 -10.592869 -0.524790 -2.231861 77.333451 35.973315 -29.126355 -27.841509 -0.000005 0.000551 -47.761344 106.447078 61.278490 -28.328825 0.000005 0.000025 -0.000321 -0.000043 0.000006 -2.464476 -1.573671 2.682257 -55.130596 -176.354993 -34.021162 -3.215264 -1.872569 1.924642 149.768399 32.135576 12.841315 -2.654954 -1.527864 1.513060 145.462525 27.692249 -31.455507 -2.018830 -1.152001 1.108049 -0.000002 -0.000003 0.000000 -9.108386 -0.517557 2.260101 94.894591 15.952892 -17.407128 -3.700077 0.000302 0.001504 92.829682 14.878840 -15.598202 -2.850094 0.000341 -0.000263 92.398662 13.059254 -13.611625 -2.772175 -0.000016 -0.000022 0.000001 0.000001 0.000002 -9.532592 0.000268 0.000207 86.866107 16.050320 -15.340960 -3.700073 0.000315 0.003954 87.802963 13.750506 -13.144885 -2.950081 0.000333 -0.001816 91.243882 13.128324 -13.406496 -2.946620 -0.000000 -0.000153 0.000002 -0.000001 0.000001 -9.103715 -0.042758 -1.864903 85.565803 18.668881 -17.257019 -3.379327 0.000304 -0.000839 86.434582 9.961243 -9.379025 -2.889762 0.000363 0.000640 94.048795 7.147758 -7.719056 -2.638802 -0.000014 0.000941 -0.000000 0.000001 0.000000 -8.076759 -0.486400 -3.806058 77.607423 20.059659 -16.062433 -3.600021 0.000269 -0.003569 79.830834 8.470947 -6.792274 -2.100001 0.000314 -0.005541 83.884142 4.331778 -3.699245 -2.115773 -0.000051 -0.003676 -0.000002 0.000004 -0.000005 4.570446 11.014691 -2.160851 -0.000018 0.000010 -0.000021 10.592399 -0.524474 -2.232351 74.937284 -12.077484 9.271133 27.841814 0.000058 -0.000212 96.198549 -72.447810 78.456368 28.328823 -0.000029 0.000020 0.000020 -0.000090 0.000000 2.466198 -1.576072 2.681835 -3.287640 165.950880 -84.600847 3.217876 -1.871833 1.916418 165.812637 -21.932533 38.752441 2.656097 -1.528686 1.514489 140.532180 -26.920306 61.425114 2.020880 -1.154082 1.115150 -0.000000 0.000003 0.000001 9.109374 -0.517881 2.259718 79.010570 -19.066540 15.756015 3.700034 0.000132 -0.000476 77.305543 -11.236962 9.011042 2.850048 0.000164 0.000189 76.018687 -7.798664 6.097736 2.774878 -0.000046 -0.000026 -0.000000 0.000003 0.000001 9.533442 0.000205 -0.000096 79.948935 -17.494150 14.692294 3.700017 0.000162 -0.000370 83.259985 -8.711440 7.743387 2.950047 0.000176 -0.000208 83.977832 -9.136769 8.229438 2.952865 -0.000015 0.000062 0.000000 0.000001 0.000000 9.104568 -0.042857 -1.865228 79.888099 -16.797542 14.098630 3.150034 0.000200 -0.000102 84.977293 -10.458148 9.585239 2.950002 0.000177 -0.000084 85.714400 -9.268757 8.604352 2.644304 0.000030 0.000051 -0.000001 0.000000 -0.000001 8.077824 -0.486726 -3.806405 71.986260 -17.949227 13.529381 3.599994 0.000154 0.014563 73.094683 -14.996567 11.534970 2.100044 0.000168 0.007542 74.941676 -11.502150 9.199540 2.125500 -0.000015 0.007515 -0.000002 -0.000001 -0.000002 -8.207786 -6.751667 -1.599560 -0.077001 -0.000003 0.000080 -0.000002 -44.370110 0.345938 0.153719 -0.000000 -0.000000 0.000000 -44.423679 -3.043532 -0.076700 0.000000 -0.000002 -0.000006 -8.728667 10.710559 -0.000009 -0.000000 -0.000000 -0.000001 -0.000679 9.278123 0.000000 -0.000000 -0.000000 8.207792 -6.751710 -1.599556 -0.074518 -0.000003 0.000081 -0.000002 -44.370014 0.346960 0.148822 0.000002 0.000000 -0.000001 -44.423664 -3.044403 -0.074314 0.000000 -0.000002 -0.000004 -8.728671 10.710558 0.000007 -0.000000 -0.000000 0.000000 -0.000680 9.278137 -0.000000 0.000000 -0.000001 
0.000006 104.270477 1.554256 0.000010 0.000003 -0.000113 -0.000005 10.181587 0.131522 0.000001 -0.000003 0.000084 -0.000000 9.893967 -1.470711 0.000001 0.000000 -0.000000 -0.000000 9.220802 -1.370642 0.000000 -0.000000 -0.000000 0.000001 16.740433 -2.049030 0.000000 -0.000000 -0.000000 0.000000 9.617859 1.685014 0.000000 0.000000 0.000000 0.000002 22.037384 7.501101 0.000000 -0.000000 0.000000 -4.569968 11.014880 -2.160881 0.000008 0.000001 -0.000038 -10.592854 -0.524809 -2.231840 76.996955 42.081192 -34.025028 -27.841526 0.000003 0.000578 -47.012469 104.681692 58.809302 -28.328842 0.000009 0.000021 -0.000321 -0.000046 0.000006 -2.464432 -1.573692 2.682296 -52.984687 -172.310756 -25.279239 -3.215265 -1.872572 1.924649 149.954754 32.258184 13.505157 -2.654956 -1.527864 1.513060 145.327670 27.710159 -31.486612 -2.018842 -1.152005 1.108047 -0.000003 -0.000003 0.000002 -9.108365 -0.517559 2.260101 94.201423 16.310466 -17.584069 -3.700074 0.000308 0.001481 92.832420 14.968998 -15.693492 -2.850098 0.000341 -0.000291 92.927504 13.032096 -13.708231 -2.772148 -0.000000 -0.000016 -0.000001 -0.000001 -0.000000 -9.532593 0.000268 0.000192 86.717099 16.336884 -15.573103 -3.700098 0.000303 0.003951 87.404906 13.703187 -13.009354 -2.950066 0.000329 -0.001811 90.815411 13.147708 -13.327154 -2.946619 0.000014 -0.000152 -0.000003 0.000001 0.000000 -9.103699 -0.042763 -1.864904 86.674711 19.506896 -18.382641 -3.379321 0.000324 -0.000848 86.296571 9.935396 -9.332261 -2.889744 0.000367 0.000621 93.593372 6.771821 -7.257664 -2.638802 -0.000004 0.000938 -0.000001 -0.000002 0.000000 -8.076757 -0.486399 -3.806058 79.245569 20.658430 -17.031825 -3.600040 0.000274 -0.003556 80.536543 8.192458 -6.642473 -2.100006 0.000319 -0.005561 83.280025 3.829943 -3.215374 -2.115763 -0.000028 -0.003677 -0.000002 -0.000001 -0.000002 4.570446 11.014691 -2.160851 -0.000018 0.000010 -0.000021 10.592440 -0.524461 -2.232376 74.579915 -24.666400 18.906208 27.841818 0.000062 -0.000189 96.819844 -75.131213 81.825489 28.328823 -0.000028 0.000020 0.000027 -0.000089 0.000001 2.466255 -1.576059 2.681829 3.060958 169.210656 -96.778200 3.217862 -1.871859 1.916419 166.850634 -20.543232 42.572931 2.656108 -1.528691 1.514495 140.550567 -26.799099 63.596704 2.020887 -1.154065 1.115142 0.000002 0.000003 0.000004 9.109383 -0.517872 2.259742 79.138711 -20.286058 16.808568 3.700031 0.000146 -0.000481 77.115718 -12.206534 9.756550 2.850037 0.000180 0.000191 75.758320 -8.561691 6.664015 2.774902 -0.000046 -0.000026 0.000000 -0.000003 0.000000 9.533464 0.000197 -0.000075 79.569996 -18.317270 15.285436 3.700025 0.000166 -0.000391 83.218943 -9.182202 8.156443 2.950040 0.000162 -0.000209 84.316896 -9.518996 8.624867 2.952868 -0.000017 0.000065 -0.000003 -0.000000 -0.000001 9.104584 -0.042856 -1.865221 79.360391 -17.518665 14.570988 3.150024 0.000199 -0.000098 84.893726 -10.357962 9.479526 2.950028 0.000166 -0.000082 86.129894 -9.103955 8.512741 2.644338 0.000030 0.000057 -0.000002 0.000001 0.000001 8.077831 -0.486733 -3.806417 71.532059 -18.458506 13.791924 3.599992 0.000151 0.014564 72.804817 -14.996614 11.474670 2.100049 0.000166 0.007546 74.797395 -11.490160 9.166454 2.125518 -0.000015 0.007518 0.000001 0.000001 0.000000 -8.207786 -6.751667 -1.599560 -0.077001 -0.000003 0.000080 -0.000002 -44.370110 0.345938 0.153719 -0.000000 -0.000000 0.000000 -44.423679 -3.043532 -0.076700 0.000000 -0.000002 -0.000006 -8.728667 10.710559 -0.000009 -0.000000 -0.000000 -0.000001 -0.000679 9.278123 0.000000 -0.000000 -0.000000 8.207792 -6.751710 -1.599556 -0.074518 -0.000003 0.000081 -0.000002 -44.370014 0.346960 0.148822 0.000002 0.000000 -0.000001 -44.423664 -3.044403 -0.074314 0.000000 -0.000002 -0.000004 -8.728671 10.710558 0.000007 -0.000000 -0.000000 0.000000 -0.000680 9.278137 -0.000000 0.000000 -0.000001 
